<svg width="160" height="31" viewBox="0 0 160 31" fill="none" xmlns="http://www.w3.org/2000/svg">
<g clip-path="url(#clip0_234_549)">
<path d="M105.077 17.2922C105.909 16.4868 106.309 15.4287 106.293 14.1495C106.261 11.4175 104.068 9.56982 100.866 9.56982C98.3212 9.56982 96.016 10.6279 94.3672 12.5387C92.8784 14.2759 92.046 16.6131 92.078 18.9346C92.1261 22.9932 94.5913 25.3304 98.8174 25.3304C99.8259 25.3304 102.371 25.2199 104.452 24.1618L104.548 24.1144L104.164 20.6243L103.956 20.7191C102.675 21.335 101.331 21.635 99.8419 21.635C98.5933 21.635 97.6328 21.256 97.0725 20.5454C96.8324 20.2137 96.6723 19.6768 96.6403 19.282C100.85 19.3925 103.604 18.7293 105.077 17.2922ZM97.0725 15.7919C97.4407 14.4022 98.5613 13.0599 100.354 13.0599C101.251 13.0599 101.827 13.4863 101.827 14.1653C101.827 14.4812 101.731 14.7339 101.507 14.9392C100.93 15.5393 99.5218 15.7919 97.0725 15.7919Z" fill="#19222E"/>
<path d="M94.2071 9.88565H88.1081L84.2181 14.3864C83.8339 14.8602 83.4818 15.3181 83.1456 15.7445L85.3867 3.20557L80.056 5.11642L76.5343 24.8092L76.5023 24.9987H81.4968L82.3452 20.2927L83.5938 19.0451L86.075 24.9987H92.1901L87.5638 16.0762L94.2071 9.88565Z" fill="#19222E"/>
<path d="M20.3782 9.5542C18.6173 9.5542 16.9525 10.3438 15.7519 11.7493L15.976 9.88583H11.8939L8.11606 30.9999L13.1586 29.1838L13.959 24.7936C14.5033 25.0621 15.4957 25.3464 16.6963 25.3464C22.2351 25.3464 25.4847 20.2455 25.4207 15.3183C25.3887 11.8125 23.4037 9.5542 20.3782 9.5542ZM16.5203 21.73C15.7679 21.73 15.1436 21.5247 14.6633 21.0983L15.1596 18.003C15.6558 15.2394 17.0645 13.3759 18.6813 13.3759C20.3302 13.3759 20.4742 15.113 20.4742 15.6342C20.5063 18.461 18.7934 21.73 16.5203 21.73Z" fill="#19222E"/>
<path d="M9.87695 13.5969L10.5333 9.88574H7.61982L7.71586 9.31722C7.84393 8.5592 8.35618 6.82206 10.2131 6.82206C10.5173 6.82206 10.8054 6.85365 11.0936 6.90102L11.7819 3.01615C11.2696 2.9214 10.7094 2.87402 10.069 2.87402C9.28465 2.87402 7.26764 3.01615 5.55478 4.39007C4.11406 5.49552 3.08955 7.3432 2.70536 9.45935L2.62532 9.90153H0.656334L6.13928e-06 13.5969H1.96899L-0.0640259 25.0146H4.96249L6.9955 13.5969H9.87695Z" fill="#19222E"/>
<path d="M65.2967 16.1394C65.6809 14.0074 65.3927 12.365 64.4322 11.2438C63.4878 10.1225 61.887 9.56982 59.6779 9.56982C56.4282 9.56982 54.1551 10.5805 53.5468 10.8806L53.4507 10.9279L53.8189 14.2443L54.027 14.1338C55.0195 13.581 56.7164 13.0283 58.2852 13.0283C59.2616 13.0283 59.934 13.2336 60.2862 13.6442C60.5903 13.9916 60.5743 14.4338 60.5263 14.7497L60.5103 14.8286C54.9075 14.8286 51.3217 16.9448 50.6653 20.6243C50.4412 21.8877 50.7294 23.1037 51.4657 23.9723C52.2341 24.8724 53.4027 25.362 54.8594 25.362C56.6043 25.362 58.2211 24.7619 59.4057 23.6722L59.4217 25.0303H63.7119L65.2967 16.1394ZM59.8379 19.4399C59.7899 19.7084 59.7099 19.9611 59.6138 20.1822C59.1336 21.1297 58.0771 21.793 57.0365 21.793C56.5243 21.793 56.1241 21.6508 55.884 21.3666C55.6598 21.0981 55.5798 20.7191 55.6758 20.2295C55.932 18.7767 57.4207 18.0344 60.0941 18.0344L59.8379 19.4399Z" fill="#19222E"/>
<path d="M114.729 21.2406L114.553 21.2722C114.169 21.3354 113.753 21.3354 113.353 21.3354C112.6 21.3354 112.248 21.0037 112.248 20.2615C112.248 19.693 112.376 18.856 112.472 18.4138L113.401 13.5183H116.122L116.762 9.90186H114.057L114.793 5.7959L109.831 7.58041L109.399 9.90186H107.462L106.837 13.5183H108.742L107.686 19.235C107.478 20.3721 107.398 21.1932 107.414 22.0144C107.446 24.099 108.966 25.3466 111.512 25.3466C112.344 25.3466 113.417 25.2518 114.057 25.0465L114.729 21.2406Z" fill="#19222E"/>
<path d="M123.694 15.7447C122.477 15.1762 121.933 14.7024 121.933 14.1971C121.917 13.518 122.637 13.0601 123.726 13.0601C125.007 13.0601 126.031 13.4075 126.671 13.7075L126.831 13.7865L127.472 10.1701C126.591 9.79108 125.279 9.5542 123.854 9.5542C119.868 9.5542 117.131 11.7177 117.163 14.7972C117.179 16.4554 118.299 17.8135 120.492 18.8716C121.981 19.5822 122.285 20.0718 122.301 20.6403C122.317 21.3509 121.629 21.8089 120.572 21.8089C119.244 21.8089 117.659 21.2562 116.698 20.7982L116.538 20.7193L115.882 24.3672C116.906 24.9358 118.571 25.299 120.204 25.299C124.542 25.299 127.216 23.246 127.168 19.9296C127.152 17.7503 125.311 16.5501 123.694 15.7447Z" fill="#19222E"/>
<path d="M49.1606 10.8807C48.4242 10.0121 47.3037 9.56994 45.927 9.56994C44.8224 9.56994 43.8139 9.80683 42.8694 10.3122C42.1011 10.7228 41.3647 11.2913 40.7244 11.9704C40.2601 10.4859 38.8354 9.56994 36.9625 9.56994C35.0735 9.56994 33.4407 10.2964 32.0961 11.7177L32.5603 9.14355L27.966 10.8017L25.4207 25.0305H25.4367H29.7269H30.2871L31.8559 16.2658C31.904 15.9658 32 15.5394 32.2241 15.1604C32.6403 14.4023 33.4727 13.5811 34.5613 13.5811C35.0415 13.5811 35.4257 13.7391 35.6818 14.0233C36.0981 14.4971 36.1941 15.3657 35.986 16.5343L34.4652 25.0147H39.3317L40.9005 16.2342C40.9645 15.9026 41.0926 15.4288 41.2846 15.0972C41.6688 14.3708 42.4853 13.5811 43.5738 13.5811C44.0861 13.5811 44.4702 13.7391 44.7264 14.0391C45.1586 14.5445 45.2546 15.4762 45.0145 16.787L43.5418 25.0305H48.4082L49.993 16.1869C50.4092 13.8338 50.1211 12.0177 49.1606 10.8807Z" fill="#19222E"/>
<path d="M78.1671 9.61749C77.8309 9.55432 77.6068 9.55432 77.1586 9.55432C75.7339 9.55432 73.8609 10.4071 72.6603 12.2706L73.2206 9.12793L68.5783 10.8019L66.033 25.0148H70.3872H71.0275L72.3882 17.3714C72.4522 17.0082 72.5483 16.6608 72.6603 16.3765C73.2046 14.9868 74.5013 14.1498 76.1181 14.1498C76.6143 14.1498 76.9985 14.213 77.3187 14.2604L77.4787 14.292L78.3112 9.64907L78.1671 9.61749Z" fill="#19222E"/>
<path d="M138.085 25.8045C138.437 25.5519 138.773 25.2992 139.11 25.0623C139.382 24.857 139.958 24.4306 139.99 24.4148C152.044 15.3501 154.365 8.5911 156.174 -0.015625C150.747 13.3919 142.583 17.3242 138.213 20.1825C135.428 16.9925 134.419 12.5707 135.972 8.51214C137.141 5.43267 139.558 3.1586 142.503 1.97419C138.229 2.9533 134.547 5.89064 132.93 10.1545C130.737 15.9345 133.011 22.3145 138.053 25.8203C138.069 25.8203 138.085 25.8203 138.085 25.8045Z" fill="#19222E"/>
<path d="M159.456 17.2292C157.775 21.6668 153.501 24.4305 148.81 24.6673C151.772 20.3561 158.607 12.6811 156.366 0C155.662 10.5492 152.236 16.1554 144.056 24.0357C143.08 24.9832 142.039 25.9465 140.918 26.9572C140.822 27.052 140.71 27.1467 140.614 27.2415C140.838 27.3362 141.079 27.431 141.303 27.5257C148.554 30.2104 156.558 26.7993 159.184 19.8981C159.776 18.3505 160.032 16.7713 160.016 15.2078C159.888 15.8711 159.696 16.5502 159.456 17.2292Z" fill="#19222E"/>
</g>
<defs>
<clipPath id="clip0_234_549">
<rect width="160" height="31" fill="white"/>
</clipPath>
</defs>
</svg>
