<svg width="244" height="32" viewBox="0 0 244 32" fill="none" xmlns="http://www.w3.org/2000/svg">
<g clip-path="url(#clip0_234_234)">
<path d="M105.077 17.7924C105.909 16.987 106.309 15.9289 106.293 14.6498C106.261 11.9177 104.068 10.07 100.866 10.07C98.3212 10.07 96.016 11.1281 94.3672 13.039C92.8784 14.7761 92.046 17.1133 92.078 19.4348C92.1261 23.4934 94.5913 25.8306 98.8174 25.8306C99.8259 25.8306 102.371 25.7201 104.452 24.662L104.548 24.6146L104.164 21.1246L103.956 21.2193C102.675 21.8352 101.331 22.1353 99.8419 22.1353C98.5933 22.1353 97.6328 21.7562 97.0725 21.0456C96.8324 20.714 96.6723 20.177 96.6403 19.7822C100.85 19.8928 103.604 19.2295 105.077 17.7924ZM97.0725 16.2922C97.4407 14.9024 98.5613 13.5601 100.354 13.5601C101.251 13.5601 101.827 13.9865 101.827 14.6656C101.827 14.9814 101.731 15.2341 101.507 15.4394C100.93 16.0395 99.5218 16.2922 97.0725 16.2922Z" fill="white"/>
<path d="M94.2071 10.3859H88.1081L84.2181 14.8867C83.8339 15.3604 83.4818 15.8184 83.1456 16.2448L85.3867 3.70581L80.056 5.61666L76.5343 25.3095L76.5023 25.499H81.4968L82.3452 20.7929L83.5938 19.5453L86.075 25.499H92.1901L87.5638 16.5764L94.2071 10.3859Z" fill="white"/>
<path d="M20.3782 10.0543C18.6173 10.0543 16.9525 10.8439 15.7519 12.2494L15.976 10.3859H11.8939L8.11606 31.5L13.1586 29.6839L13.959 25.2937C14.5033 25.5621 15.4957 25.8464 16.6963 25.8464C22.2351 25.8464 25.4847 20.7455 25.4207 15.8184C25.3887 12.3125 23.4037 10.0543 20.3782 10.0543ZM16.5203 22.23C15.7679 22.23 15.1436 22.0247 14.6633 21.5983L15.1596 18.5031C15.6558 15.7394 17.0645 13.876 18.6813 13.876C20.3302 13.876 20.4742 15.6131 20.4742 16.1342C20.5063 18.961 18.7934 22.23 16.5203 22.23Z" fill="white"/>
<path d="M9.87694 14.097L10.5333 10.3859H7.61981L7.71586 9.81737C7.84392 9.05935 8.35618 7.32221 10.2131 7.32221C10.5173 7.32221 10.8054 7.3538 11.0935 7.40117L11.7819 3.5163C11.2696 3.42155 10.7094 3.37417 10.069 3.37417C9.28464 3.37417 7.26763 3.5163 5.55478 4.89022C4.11406 5.99567 3.08954 7.84335 2.70535 9.9595L2.62531 10.4017H0.656327L-1.49012e-06 14.097H1.96898L-0.0640335 25.5148H4.96248L6.9955 14.097H9.87694Z" fill="white"/>
<path d="M65.2966 16.6396C65.6808 14.5076 65.3927 12.8653 64.4322 11.744C63.4877 10.6228 61.8869 10.07 59.6778 10.07C56.4282 10.07 54.1551 11.0807 53.5468 11.3808L53.4507 11.4282L53.8189 14.7445L54.027 14.634C55.0195 14.0813 56.7164 13.5285 58.2851 13.5285C59.2616 13.5285 59.934 13.7338 60.2861 14.1444C60.5903 14.4918 60.5743 14.934 60.5263 15.2499L60.5103 15.3288C54.9075 15.3288 51.3217 17.445 50.6653 21.1246C50.4412 22.3879 50.7294 23.6039 51.4657 24.4725C52.2341 25.3726 53.4027 25.8622 54.8594 25.8622C56.6043 25.8622 58.2211 25.2621 59.4057 24.1724L59.4217 25.5306H63.7119L65.2966 16.6396ZM59.8379 19.9401C59.7899 20.2086 59.7099 20.4613 59.6138 20.6824C59.1336 21.6299 58.077 22.2932 57.0365 22.2932C56.5243 22.2932 56.1241 22.151 55.8839 21.8668C55.6598 21.5983 55.5798 21.2193 55.6758 20.7298C55.932 19.2769 57.4207 18.5346 60.094 18.5346L59.8379 19.9401Z" fill="white"/>
<path d="M114.729 21.7404L114.553 21.772C114.169 21.8352 113.753 21.8352 113.353 21.8352C112.6 21.8352 112.248 21.5036 112.248 20.7613C112.248 20.1928 112.376 19.3558 112.472 18.9137L113.401 14.0181H116.122L116.762 10.4017H114.057L114.793 6.29572L109.831 8.08023L109.399 10.4017H107.462L106.837 14.0181H108.742L107.686 19.7348C107.478 20.8719 107.398 21.6931 107.414 22.5143C107.446 24.5988 108.966 25.8464 111.512 25.8464C112.344 25.8464 113.417 25.7517 114.057 25.5464L114.729 21.7404Z" fill="white"/>
<path d="M123.694 16.2448C122.477 15.6763 121.933 15.2025 121.933 14.6971C121.917 14.0181 122.637 13.5601 123.726 13.5601C125.007 13.5601 126.031 13.9075 126.671 14.2076L126.831 14.2866L127.472 10.6701C126.591 10.2911 125.279 10.0543 123.854 10.0543C119.868 10.0543 117.131 12.2178 117.163 15.2972C117.179 16.9554 118.299 18.3135 120.492 19.3716C121.981 20.0823 122.285 20.5718 122.301 21.1403C122.317 21.851 121.629 22.309 120.572 22.309C119.244 22.309 117.659 21.7562 116.698 21.2983L116.538 21.2193L115.882 24.8673C116.906 25.4358 118.571 25.799 120.204 25.799C124.542 25.799 127.216 23.7461 127.168 20.4297C127.152 18.2504 125.311 17.0502 123.694 16.2448Z" fill="white"/>
<path d="M49.1606 11.3808C48.4242 10.5122 47.3037 10.07 45.927 10.07C44.8224 10.07 43.8139 10.3069 42.8694 10.8123C42.1011 11.2229 41.3647 11.7914 40.7244 12.4705C40.2601 10.986 38.8354 10.07 36.9625 10.07C35.0735 10.07 33.4407 10.7965 32.0961 12.2178L32.5603 9.64366L27.966 11.3018L25.4207 25.5306H25.4367H29.7269H30.2871L31.8559 16.7659C31.904 16.4659 32 16.0395 32.2241 15.6605C32.6403 14.9024 33.4727 14.0813 34.5613 14.0813C35.0415 14.0813 35.4257 14.2392 35.6818 14.5234C36.0981 14.9972 36.1941 15.8658 35.986 17.0344L34.4652 25.5148H39.3317L40.9005 16.7343C40.9645 16.4027 41.0926 15.9289 41.2846 15.5973C41.6688 14.8709 42.4853 14.0813 43.5738 14.0813C44.0861 14.0813 44.4702 14.2392 44.7264 14.5392C45.1586 15.0446 45.2546 15.9763 45.0145 17.2871L43.5418 25.5306H48.4082L49.993 16.687C50.4092 14.3339 50.1211 12.5178 49.1606 11.3808Z" fill="white"/>
<path d="M78.1671 10.1174C77.8309 10.0543 77.6068 10.0543 77.1586 10.0543C75.7339 10.0543 73.8609 10.907 72.6603 12.7705L73.2206 9.62786L68.5783 11.3018L66.033 25.5148H70.3872H71.0275L72.3882 17.8714C72.4522 17.5082 72.5483 17.1607 72.6603 16.8765C73.2046 15.4868 74.5013 14.6498 76.1181 14.6498C76.6143 14.6498 76.9985 14.7129 77.3187 14.7603L77.4787 14.7919L78.3112 10.149L78.1671 10.1174Z" fill="white"/>
<path d="M138.085 26.3044C138.437 26.0517 138.773 25.799 139.11 25.5622C139.382 25.3569 139.958 24.9305 139.99 24.9147C152.044 15.85 154.365 9.09093 156.174 0.484207C150.747 13.8917 142.583 17.824 138.213 20.6824C135.428 17.4924 134.419 13.0706 135.972 9.01197C137.141 5.9325 139.558 3.65843 142.503 2.47402C138.229 3.45313 134.547 6.39047 132.93 10.6544C130.737 16.4343 133.011 22.8143 138.053 26.3202C138.069 26.3202 138.085 26.3202 138.085 26.3044Z" fill="white"/>
<path d="M159.456 17.7292C157.775 22.1668 153.501 24.9305 148.81 25.1673C151.772 20.8561 158.607 13.1811 156.366 0.5C155.662 11.0492 152.236 16.6554 144.056 24.5357C143.08 25.4832 142.039 26.4465 140.918 27.4572C140.822 27.552 140.71 27.6467 140.614 27.7415C140.838 27.8362 141.079 27.931 141.303 28.0257C148.554 30.7104 156.558 27.2993 159.184 20.3981C159.776 18.8505 160.032 17.2713 160.016 15.7078C159.888 16.3711 159.696 17.0502 159.456 17.7292Z" fill="white"/>
</g>
<defs>
<clipPath id="clip0_234_234">
<rect width="160" height="31" fill="white" transform="translate(0 0.5)"/>
</clipPath>
</defs>
</svg>
